<?xml version="1.0" encoding="utf-8"?>
<!-- Generator: Adobe Illustrator 22.0.0, SVG Export Plug-In . SVG Version: 6.00 Build 0)  -->
<svg version="1.1" id="Layer_1" xmlns="http://www.w3.org/2000/svg" xmlns:xlink="http://www.w3.org/1999/xlink" x="0px" y="0px"
	 viewBox="0 0 400 400" style="enable-background:new 0 0 400 400;" xml:space="preserve">
<style type="text/css">
	.st0{opacity:0.4;fill:#2C669D;}
	.st1{fill:none;}
	.st2{fill:#D5E0EB;}
	.st3{fill:#2C669D;}
</style>
<rect class="st0" width="400" height="400"/>
<path class="st1" d="M132.9,226.3c-3.7,4.4-7.9,8.4-12.5,11.8c4.9,2.6,9.5,5.9,13.5,9.7c3.2-2.9,6.8-5.5,10.6-7.8
	C140.1,235.9,136.2,231.3,132.9,226.3z"/>
<path class="st1" d="M266.8,227.9c-3.1,4.3-6.5,8.3-10.3,11.9c3.3,1.9,6.4,4.2,9.4,6.6c3.7-3.2,7.7-6.1,12.1-8.4
	C273.8,235.1,270.1,231.7,266.8,227.9z"/>
<path class="st2" d="M266.8,206.9c3.3,3.8,7.1,7.2,11.2,10.2c-4.4,2.3-8.4,5.2-12.1,8.4c14,11.9,22.8,29.5,22.8,49.2V298
	c38.1,8.6,73.4,22.6,104.3,40.9v-64.8c0-24.7-13.8-46.1-34.2-57c17.2-12.5,28.4-32.8,28.4-55.8c0-38.1-30.8-68.9-68.9-68.9
	c-20,0-38,8.5-50.5,22.1c8.8,13,13.9,28.6,13.9,45.5C281.7,177.5,276.2,193.6,266.8,206.9z"/>
<path class="st2" d="M112.4,274.7c0-19.1,8.3-36.2,21.4-48c-4.1-3.8-8.6-7-13.5-9.7c4.7-3.4,8.8-7.3,12.5-11.8
	c-8.7-13-13.8-28.5-13.8-45.3c0-16.2,4.7-31.2,12.9-43.9c-12.6-14.5-31.2-23.7-52-23.7c-38.1,0-68.9,30.8-68.9,68.9
	c0,22.9,11.2,43.2,28.4,55.8c-20.3,10.9-34.2,32.3-34.2,57v64.8c31.7-18.7,67.9-32.9,107.2-41.5V274.7z"/>
<path class="st3" d="M265.8,225.5c-2.9-2.5-6-4.7-9.4-6.6c3.8-3.6,7.3-7.6,10.3-11.9c9.4-13.3,14.9-29.5,14.9-46.9
	c0-16.8-5.1-32.5-13.9-45.5c-14.6-21.7-39.4-35.9-67.5-35.9c-28.8,0-54,15-68.5,37.5c-8.1,12.7-12.9,27.7-12.9,43.9
	c0,16.8,5.1,32.4,13.8,45.3c3.3,5,7.2,9.6,11.5,13.7c-3.8,2.2-7.3,4.8-10.6,7.8c-13.1,11.8-21.4,28.9-21.4,48v22.6
	c13.7-3,27.7-5.3,42.1-6.8c14.6-1.6,29.5-2.4,44.6-2.4s30,0.8,44.6,2.4c15.3,1.7,30.3,4.2,44.9,7.5v-23.3
	C288.6,255,279.8,237.4,265.8,225.5z"/>
</svg>
